HIERARCHY
ROOT Hips
{
	OFFSET 0.000000 0.000000 0.000000 
	CHANNELS 6 Xposition Yposition Zposition Yrotation Zrotation Xrotation 
	JOINT Lumbar
	{
		OFFSET 0.000000 0.000000 0.000000 
		CHANNELS 3 Zrotation Xrotation Yrotation
		JOINT Neck
		{
			OFFSET 0.000000 0.445665 0.000000 
			CHANNELS 3 Zrotation Xrotation Yrotation
			End Site
			{
				OFFSET 0.000000 0.227535 0.000000 
			}
		}
		JOINT RightShoulder
		{
			OFFSET 0.019635 0.377685 0.194865 
			CHANNELS 3 Zrotation Xrotation Yrotation
			JOINT RightElbow
			{
				OFFSET 0.000000 -0.243375 0.000000 
				CHANNELS 2 Zrotation Yrotation
				JOINT RightWrist
				{
					OFFSET 0.000000 -0.264825 0.000000 
					CHANNELS 2 Zrotation Xrotation
					End Site
					{
						OFFSET 0.006600 -0.176220 0.000990 
					}
				}
			}
		}
		JOINT LeftShoulder
		{
			OFFSET 0.019635 0.377685 -0.194865 
			CHANNELS 3 Zrotation Xrotation Yrotation
			JOINT LeftElbow
			{
				OFFSET 0.000000 -0.243375 0.000000 
				CHANNELS 2 Zrotation Yrotation
				JOINT LeftWrist
				{
					OFFSET 0.000000 -0.264825 0.000000 
					CHANNELS 2 Zrotation Xrotation
					End Site
					{
						OFFSET 0.006600 -0.176220 -0.000990 
					}
				}
			}
		}
	}
	JOINT RightHip
	{
		OFFSET 0.052140 -0.069960 0.075570 
		CHANNELS 3 Zrotation Xrotation Yrotation
		JOINT RightKnee
		{
			OFFSET 0.000000 -0.402270 0.000000 
			CHANNELS 1 Zrotation
			JOINT RightAnkle
			{
				OFFSET 0.000000 -0.404085 0.000000 
				CHANNELS 3 Zrotation Xrotation Yrotation
				End Site
				{
					OFFSET 0.204105 -0.089430 0.008415 
				}
			}
		}
	}
	JOINT LeftHip
	{
		OFFSET 0.052140 -0.069960 -0.075570 
		CHANNELS 3 Zrotation Xrotation Yrotation
		JOINT LeftKnee
		{
			OFFSET 0.000000 -0.402270 0.000000 
			CHANNELS 1 Zrotation
			JOINT LeftAnkle
			{
				OFFSET 0.000000 -0.404085 0.000000 
				CHANNELS 3 Zrotation Xrotation Yrotation
				End Site
				{
					OFFSET 0.204105 -0.089430 -0.008415 
				}
			}
		}
	}
}
MOTION
Frames: 33
Frame Time: 0.02
-0.33199 -0.33098 0.201 27.53144 -20.70078 -4.46361 36.66344 2.41325 -3.87699 7.17882 -8.93175 -2.11968 43.03605 -1.95488 13.60329 128.43707 97.65528 9.5285 1.95921 44.00533 0.71357 -6.83122 133.6659 -96.34792 7.22303 -4.96118 108.10404 -9.79354 -9.01798 -101.0977 -10.06658 -1.00815 -2.88829 110.03482 6.18837 3.43969 -101.71514 -11.93016 1.38493 3.15357
-0.33202 -0.33132 0.20124 27.53413 -20.55858 -4.49826 36.68238 2.36244 -3.78453 7.19011 -8.81434 -2.11968 42.72949 -1.6151 13.67131 128.50995 98.86139 9.73624 2.149 43.87235 0.67415 -6.90145 133.69242 -97.45953 7.38637 -4.89283 107.91417 -9.79009 -9.16607 -101.09175 -10.02484 -1.03523 -2.89975 109.93593 6.19474 3.37719 -101.74498 -11.93703 1.37856 3.15079
-0.33191 -0.33157 0.20156 27.51201 -20.42126 -4.55165 36.74109 2.30011 -3.70244 7.11819 -8.59305 -2.11968 42.52312 -1.25836 13.76761 128.52827 100.33994 10.02506 2.49937 43.97478 0.90119 -7.00305 133.59249 -99.41111 7.66232 -4.71697 107.70988 -9.75899 -9.33886 -101.07326 -9.9789 -1.06573 -2.91249 109.8428 6.23271 3.29131 -101.77773 -11.94006 1.37105 3.14646
-0.33187 -0.33185 0.20184 27.49966 -20.2853 -4.5973 36.78596 2.24363 -3.61613 7.08589 -8.41456 -2.11968 42.28116 -0.91961 13.84872 128.56935 101.63496 10.26387 2.76157 43.98437 1.01234 -7.08862 133.54492 -100.91308 7.87233 -4.59252 107.51762 -9.73862 -9.49433 -101.05962 -9.93633 -1.09324 -2.92399 109.75072 6.25702 3.21638 -101.80805 -11.94513 1.36427 3.14299
-0.33179 -0.33216 0.20213 27.49351 -20.13377 -4.63978 36.81203 2.1835 -3.52708 7.04719 -8.2518 -2.11968 41.98761 -0.53692 13.93864 128.62161 103.18392 10.56133 3.0835 43.9261 1.10064 -7.1837 133.52156 -102.68952 8.14453 -4.46059 107.30139 -9.72588 -9.67618 -101.04954 -9.88724 -1.12697 -2.93832 109.64249 6.27872 3.14054 -101.84312 -11.94873 1.35673 3.13893
-0.33176 -0.33238 0.2024 27.46876 -20.0166 -4.69345 36.88784 2.12849 -3.44688 7.00095 -8.03213 -2.11968 41.82595 -0.24133 14.01549 128.63736 104.26744 10.75596 3.32034 44.06497 1.29749 -7.26597 133.41699 -104.09586 8.3155 -4.31724 107.13275 -9.6909 -9.80889 -101.02957 -9.85073 -1.14852 -2.94706 109.57046 6.3129 3.06042 -101.86943 -11.95454 1.35043 3.13569
-0.33191 -0.33234 0.20258 27.39704 -19.98564 -4.77116 37.08111 2.0923 -3.38341 6.96235 -7.68798 -2.11968 42.04157 -0.19801 14.07152 128.55674 104.00631 10.63139 3.28965 44.73046 1.76197 -7.30095 133.11598 -104.31077 8.16128 -4.17178 107.08911 -9.59892 -9.79766 -100.97926 -9.85153 -1.13524 -2.9399 109.58475 6.37781 2.97956 -101.865 -11.96759 1.34814 3.13527
-0.33212 -0.3322 0.20273 27.3078 -19.99024 -4.85985 37.32461 2.06148 -3.32956 6.91753 -7.28942 -2.11968 42.38122 -0.24183 14.10935 128.44253 103.2668 10.40286 3.1675 45.58027 2.32101 -7.32225 132.738 -104.12282 7.90483 -4.01799 107.09542 -9.48585 -9.73643 -100.92048 -9.86492 -1.10964 -2.92711 109.63713 6.45346 2.89412 -101.85258 -11.98295 1.34703 3.13566
-0.33229 -0.33212 0.20289 27.22769 -19.98375 -4.94499 37.55223 2.02718 -3.27463 6.87011 -6.91138 -2.11968 42.64144 -0.24075 14.14193 128.34897 102.74012 10.23132 3.08315 46.32149 2.81547 -7.3525 132.39654 -104.09383 7.70631 -3.86492 107.08574 -9.38404 -9.69943 -100.86953 -9.87158 -1.08984 -2.91697 109.68048 6.52158 2.80733 -101.8476 -11.99719 1.34519 3.13557
-0.33251 -0.33198 0.20307 27.14171 -19.95696 -5.02478 37.75336 1.99689 -3.20582 6.84244 -6.54693 -2.11968 43.0027 -0.26082 14.23413 128.23053 102.23831 10.02123 3.0191 47.17634 3.40987 -7.37307 132.0432 -104.18274 7.46171 -3.71918 107.04838 -9.27448 -9.65691 -100.80139 -9.88232 -1.06919 -2.90644 109.69053 6.60197 2.73451 -101.82688 -12.01171 1.34427 3.13597
-0.33264 -0.33194 0.20319 27.06422 -19.97966 -5.11797 38.01924 1.95964 -3.16847 6.77357 -6.14322 -2.11968 43.18117 -0.25854 14.19543 128.15702 101.57254 9.86605 2.89039 47.83425 3.81573 -7.40921 131.69924 -103.93581 7.28936 -3.55999 107.07926 -9.17606 -9.61371 -100.76713 -9.88761 -1.04751 -2.89543 109.77709 6.65899 2.63143 -101.83677 -12.02608 1.34156 3.13546
-0.33253 -0.33217 0.20317 27.01381 -20.14064 -5.2463 38.4671 1.90239 -3.21228 6.59004 -5.6402 -2.11968 42.82988 -0.1673 13.81794 128.21257 100.52645 9.88397 2.59289 47.91154 3.67195 -7.49936 131.38943 -102.71152 7.32236 -3.34465 107.29909 -9.11706 -9.58051 -100.82911 -9.87479 -1.0246 -2.88381 110.08118 6.64838 2.44964 -101.93507 -12.04117 1.33493 3.13309
-0.33232 -0.33249 0.20309 26.97281 -20.34833 -5.38743 38.9752 1.838 -3.28796 6.36616 -5.10112 -2.11968 42.2894 -0.05223 13.3064 128.31525 99.33881 9.96081 2.23511 47.7819 3.33549 -7.60408 131.09428 -101.18311 7.43374 -3.11997 107.58359 -9.06962 -9.54829 -100.92528 -9.8561 -1.00131 -2.87202 110.45803 6.61391 2.23732 -102.06396 -12.05578 1.32625 3.12966
-0.33214 -0.33278 0.20303 26.92807 -20.52778 -5.52212 39.44553 1.77653 -3.35126 6.16267 -4.58153 -2.11968 41.83095 0.04857 12.8434 128.39893 98.24388 10.01318 1.91235 47.74002 3.08906 -7.69689 130.79999 -99.89172 7.52234 -2.91463 107.83017 -9.0146 -9.51569 -101.00563 -9.84008 -0.97913 -2.86077 110.79129 6.59042 2.0362 -102.17773 -12.06948 1.31759 3.12613
-0.332 -0.33304 0.20299 26.88047 -20.73782 -5.66006 39.96197 1.71634 -3.40619 5.95005 -4.04587 -2.11968 41.39152 0.16283 12.42962 128.47176 97.01269 10.05325 1.55407 47.72994 2.83341 -7.81145 130.47127 -98.18438 7.55681 -2.64755 108.11437 -8.96819 -9.48103 -101.08749 -9.82437 -0.95265 -2.84744 111.17022 6.56642 1.84479 -102.2969 -12.08786 1.31263 3.12495
-0.33177 -0.33337 0.20291 26.84127 -20.89512 -5.79385 40.39544 1.65205 -3.4858 5.74721 -3.53708 -2.11968 40.86847 0.25341 11.88477 128.57812 96.03783 10.13301 1.25693 47.60368 2.55277 -7.8845 130.21865 -97.25782 7.71944 -2.50402 108.33507 -8.90746 -9.45161 -101.17367 -9.80659 -0.93508 -2.83841 111.47093 6.53807 1.62771 -102.41153 -12.09654 1.29967 3.11875
-0.33127 -0.33385 0.20273 26.82314 -20.89209 -5.9151 40.58953 1.57548 -3.62728 5.57927 -3.10128 -2.11968 40.13815 0.29454 10.98515 128.77172 95.8089 10.31974 1.14121 47.19169 2.22456 -7.83818 130.17403 -98.72419 8.25653 -2.72989 108.36297 -8.79956 -9.43611 -101.27005 -9.78328 -0.94311 -2.84172 111.53634 6.49999 1.33207 -102.51182 -12.07695 1.26323 3.09769
-0.33069 -0.33438 0.20252 26.81318 -20.83472 -6.03124 40.69685 1.49555 -3.7921 5.42299 -2.69603 -2.11969 39.33385 0.30784 9.9634 128.99645 95.84521 10.54301 1.09003 46.67182 1.88178 -7.74992 130.20561 -100.96021 8.91336 -3.07595 108.32471 -8.67791 -9.42617 -101.36847 -9.75827 -0.96 -2.84932 111.52048 6.45896 1.01434 -102.60551 -12.04784 1.21911 3.0718
-0.33018 -0.33487 0.20233 26.79943 -20.80435 -6.14838 40.84087 1.41889 -3.94526 5.26273 -2.28351 -2.11969 38.57755 0.31945 9.01415 129.20303 95.75935 10.74194 1.01106 46.2106 1.56246 -7.68168 130.20177 -102.73695 9.48932 -3.34959 108.31766 -8.56581 -9.41412 -101.46155 -9.73479 -0.97227 -2.8547 111.54283 6.42153 0.71687 -102.69851 -12.02417 1.17976 3.04894
-0.32953 -0.33544 0.20213 26.78631 -20.76635 -6.27175 40.999 1.33453 -4.10424 5.09552 -1.84133 -2.11969 37.75377 0.3905 7.98742 129.42812 95.67245 10.97423 0.92309 45.70179 1.16681 -7.60975 130.20175 -104.95776 10.17805 -3.69669 108.30836 -8.44004 -9.40024 -101.57413 -9.70788 -0.98699 -2.86119 111.56295 6.37368 0.37584 -102.80801 -11.996 1.13505 3.02263
-0.32914 -0.33586 0.20194 26.77374 -20.73017 -6.38051 41.10576 1.26561 -4.25591 4.94603 -1.46923 -2.11969 37.05572 0.33319 7.09612 129.62147 95.65599 11.14658 0.87043 45.26896 0.92737 -7.53555 130.21163 -106.44969 10.66134 -3.92113 108.2868 -8.33946 -9.39158 -101.64652 -9.68781 -0.99874 -2.8664 111.56671 6.3472 0.11984 -102.88132 -11.97466 1.09954 3.00226
-0.32949 -0.33585 0.20176 26.7602 -20.71678 -6.45223 41.09662 1.23915 -4.38431 4.84302 -1.27886 -2.11969 36.72131 -0.09218 6.59871 129.71868 95.73911 11.12946 0.89565 45.07481 1.13931 -7.46369 130.23092 -105.6619 10.53015 -3.76304 108.25063 -8.31081 -9.39517 -101.60419 -9.68692 -1.00015 -2.86697 111.55133 6.38006 0.11169 -102.85508 -11.97712 1.09301 3.00058
-0.3301 -0.3357 0.20159 26.74698 -20.70607 -6.50893 41.0377 1.22854 -4.50393 4.75744 -1.15912 -2.11969 36.51729 -0.64207 6.24465 129.78263 95.88849 11.05273 0.95486 44.96136 1.50682 -7.39133 130.25731 -104.12968 10.19087 -3.48004 108.20354 -8.30815 -9.40394 -101.52183 -9.693 -0.99829 -2.86611 111.5209 6.43464 0.18868 -102.79278 -11.98639 1.09573 3.00487
-0.33058 -0.33563 0.20142 26.73384 -20.6909 -6.57116 40.99798 1.21141 -4.62569 4.664 -1.00989 -2.11969 36.25549 -1.12169 5.83184 129.86237 96.03037 11.01352 1.00172 44.81044 1.79326 -7.32014 130.27996 -102.99223 9.95846 -3.26383 108.15907 -8.29417 -9.41089 -101.45973 -9.69603 -0.99795 -2.86592 111.49276 6.47972 0.22175 -102.74756 -11.99074 1.09308 3.00571
-0.33111 -0.3355 0.20123 26.71996 -20.68734 -6.63889 40.96918 1.19139 -4.75605 4.57122 -0.85008 -2.11969 35.98451 -1.66008 5.38652 129.94112 96.09359 10.93376 1.03908 44.65921 2.12288 -7.24319 130.30762 -101.64552 9.67909 -3.00978 108.12206 -8.27757 -9.41588 -101.38887 -9.69862 -0.99777 -2.86578 111.48047 6.52338 0.2758 -102.69892 -12.0021 1.09497 3.00943
-0.3316 -0.33545 0.20108 26.70772 -20.66117 -6.69141 40.90764 1.18102 -4.86616 4.48039 -0.72943 -2.11969 35.76492 -2.10521 5.046 130.01271 96.32335 10.9211 1.10175 44.52895 2.3997 -7.17906 130.32534 -100.54481 9.44559 -2.80295 108.06795 -8.27286 -9.42601 -101.32689 -9.70365 -0.99637 -2.86515 111.43338 6.57486 0.30705 -102.64926 -12.00106 1.08982 3.0087
-0.33191 -0.33565 0.20107 26.69864 -20.57005 -6.70789 40.76186 1.19501 -4.92183 4.39648 -0.6934 -2.11969 35.65343 -2.26282 4.94822 130.08025 97.08002 11.13178 1.24113 44.43998 2.493 -7.14705 130.3152 -100.32916 9.39739 -2.7604 107.96827 -8.29375 -9.4499 -101.29762 -9.7152 -0.99213 -2.8635 111.28776 6.64544 0.25148 -102.60283 -11.96029 1.06209 2.99367
-0.33217 -0.33593 0.2011 26.69138 -20.45672 -6.70917 40.58637 1.21792 -4.95738 4.31281 -0.69543 -2.11969 35.59005 -2.32209 4.95358 130.14022 97.98654 11.40775 1.402 44.36934 2.52774 -7.12868 130.29432 -100.37879 9.40068 -2.7689 107.85234 -8.32588 -9.47855 -101.27896 -9.72871 -0.98678 -2.8614 111.10912 6.72256 0.17083 -102.55713 -11.90753 1.02718 2.97411
-0.33245 -0.33618 0.20111 26.68409 -20.35503 -6.71597 40.42887 1.23568 -5.00254 4.22511 -0.68389 -2.11969 35.5061 -2.42593 4.92014 130.19845 98.76678 11.63793 1.54244 44.28879 2.5892 -7.10664 130.27691 -100.28723 9.37447 -2.7507 107.74477 -8.35355 -9.50453 -101.25652 -9.74032 -0.98205 -2.85951 110.95013 6.7949 0.10365 -102.513 -11.8629 0.99613 2.95698
-0.33278 -0.33644 0.20112 26.6735 -20.24677 -6.72817 40.25074 1.25846 -5.04563 4.15447 -0.6588 -2.11969 35.42061 -2.53454 4.85821 130.27712 99.78939 11.93303 1.72788 44.21756 2.65586 -7.07436 130.26517 -100.25611 9.36604 -2.74122 107.63242 -8.37956 -9.53307 -101.22831 -9.75633 -0.97671 -2.85753 110.77124 6.87588 0.03021 -102.45976 -11.80739 0.96274 2.93842
-0.33298 -0.33668 0.20115 26.67018 -20.14701 -6.72565 40.10904 1.27289 -5.08812 4.04826 -0.67044 -2.11969 35.34877 -2.60835 4.87743 130.31219 100.34906 12.11051 1.8258 44.13037 2.69547 -7.06606 130.23968 -100.17321 9.33649 -2.72957 107.52664 -8.41113 -9.55707 -101.2151 -9.76369 -0.97242 -2.85568 110.6258 6.93983 -0.03666 -102.42594 -11.77131 0.93259 2.92179
-0.3328 -0.33681 0.20125 26.68658 -20.07542 -6.68665 40.0769 1.26044 -5.13599 3.84283 -0.77048 -2.11969 35.29653 -2.60864 5.1023 130.22575 99.53067 11.93613 1.66356 43.9931 2.67668 -7.1261 130.17271 -99.87208 9.22833 -2.67905 107.44039 -8.4573 -9.56944 -101.24152 -9.74544 -0.97122 -2.8542 110.5842 6.95776 -0.08493 -102.44729 -11.7944 0.91139 2.91064
-0.33248 -0.33691 0.20138 26.71019 -20.01335 -6.63335 40.08232 1.23952 -5.1836 3.6019 -0.90642 -2.11969 35.25693 -2.57696 5.4033 130.09639 98.25238 11.64357 1.41501 43.83901 2.63168 -7.20886 130.09335 -99.51538 9.09955 -2.62806 107.36189 -8.50813 -9.57661 -101.28268 -9.71861 -0.97115 -2.85291 110.57692 6.95778 -0.12521 -102.48798 -11.83695 0.89396 2.90174
